#!OML:ASF I:\Actors\actors\Patient Classification 2\Patient 1\Session 1\actor1.ASF
:FULLY-SPECIFIED
:DEGREES
241
root -0.563635 18.7425 4.82211 3.55259 -2.49835 -1.14136
lowerback 0.580067 -0.245808 -1.29141
upperback -2.97936 -0.317046 1.47598
thorax -3.37246 -0.100536 2.25442
lowerneck -13.1551 -1.32963 -2.14706
upperneck 24.6344 -2.16431 2.9884
head 10.059 -0.862683 1.14408
rclavicle -4.50372e-015 3.37934e-015
rhumerus -55.666 -4.83404 -80.1775
rradius 49.8601
rwrist 12.1512
rhand -3.18105 -41.3257
rfingers 7.12502
rthumb 22.5402 -70.03
lclavicle -4.50372e-015 3.37934e-015
lhumerus 12.955 -17.2934 62.7326
lradius 97.9436
lwrist 66.2144
lhand -25.7634 -16.1409
lfingers 7.12502
lthumb 0.774282 13.8374
rfemur 0 0 0
rtibia 0
rfoot 0 0
rtoes 0
lfemur -5.65634 -6.54724 -14.0872
ltibia 20.9221
lfoot -22.4789 11.5387
ltoes -54.4319
242
root -0.562073 18.7426 4.81986 3.56938 -2.32511 -1.09068
lowerback 0.7028 -0.257638 -1.27176
upperback -2.93469 -0.332683 1.49794
thorax -3.39482 -0.10865 2.26717
lowerneck -13.3284 -1.37709 -2.35839
upperneck 24.5429 -2.18216 3.02245
head 10.0628 -0.88509 1.18852
rclavicle -1.18587e-014 1.64991e-014
rhumerus -55.8865 -4.77147 -80.2979
rradius 50.3478
rwrist 11.8716
rhand -3.58717 -40.9209
rfingers 7.12502
rthumb 22.1503 -69.6719
lclavicle -1.18587e-014 1.64991e-014
lhumerus 12.5651 -17.4781 62.9914
lradius 98.3654
lwrist 65.71
lhand -25.6419 -15.5016
lfingers 7.12502
lthumb 0.891606 14.4762
rfemur 0 0 0
rtibia 0
rfoot 0 0
rtoes 0
lfemur -5.74048 -6.51225 -14.1114
ltibia 20.9282
lfoot -22.3498 11.3054
ltoes -54.438
243
root -0.561826 18.7438 4.81696 3.61425 -2.12977 -1.04568
lowerback 0.805146 -0.283897 -1.25481
upperback -2.89317 -0.367294 1.52625
thorax -3.40795 -0.126138 2.28862
lowerneck -13.4851 -1.40517 -2.68203
upperneck 24.4052 -2.16798 3.15203
head 10.0482 -0.892218 1.28946
rclavicle -3.86388e-015 8.94531e-015
rhumerus -56.233 -4.57292 -80.5386
rradius 51.169
rwrist 11.5363
rhand -4.40656 -40.4964
rfingers 7.12502
rthumb 21.3635 -69.3387
lclavicle -3.86388e-015 8.94531e-015
lhumerus 11.9582 -17.6934 63.2169
lradius 98.9737
lwrist 65.1723
lhand -25.2658 -14.6618
lfingers 7.12502
lthumb 1.25487 15.3143
rfemur 0 0 0
rtibia 0
rfoot 0 0
rtoes 0
lfemur -5.86118 -6.44447 -14.1174
ltibia 20.9309
lfoot -22.1852 11.0528
ltoes -54.4717
244
root -0.561383 18.745 4.81613 3.68163 -1.97165 -1.01517
lowerback 0.895346 -0.278015 -1.1936
upperback -2.87143 -0.358227 1.53135
thorax -3.4371 -0.123069 2.25969
lowerneck -13.5846 -1.43872 -2.99152
upperneck 24.2211 -2.16352 3.28018
head 10.0062 -0.903007 1.38601
rclavicle 4.28008e-015 -7.95139e-016
rhumerus -56.8122 -4.47154 -80.771
rradius 52.4961
rwrist 11.7356
rhand -5.4456 -40.266
rfingers 7.12502
rthumb 20.3652 -69.2182
lclavicle 4.28008e-015 -7.95139e-016
lhumerus 11.0686 -18.0638 63.5209
lradius 99.7787
lwrist 64.3437
lhand -24.7844 -13.9263
lfingers 7.12502
lthumb 1.71982 16.0465
rfemur 0 0 0
rtibia 0
rfoot 0 0
rtoes 0
lfemur -5.98927 -6.26492 -14.1031
ltibia 20.9282
lfoot -22.0262 10.758
ltoes -54.4939
245
root -0.560259 18.7465 4.81787 3.77892 -1.86599 -0.978742
lowerback 0.95964 -0.217218 -1.08927
upperback -2.85406 -0.275357 1.5017
thorax -3.45982 -0.0849214 2.16759
lowerneck -13.7426 -1.51954 -3.30637
upperneck 24.0652 -2.22034 3.39938
head 9.98793 -0.942626 1.47247
rclavicle 2.4289e-015 -2.34566e-014
rhumerus -57.6207 -4.60362 -80.9072
rradius 54.405
rwrist 12.5999
rhand -6.61637 -39.9481
rfingers 7.12502
rthumb 19.2397 -69.0164
lclavicle 2.4289e-015 -2.34566e-014
lhumerus 9.88429 -18.6214 63.9401
lradius 100.806
lwrist 63.288
lhand -24.0867 -13.5519
lfingers 7.12502
lthumb 2.39367 16.4144
rfemur 0 0 0
rtibia 0
rfoot 0 0
rtoes 0
lfemur -6.12977 -6.06633 -14.0996
ltibia 20.9307
lfoot -21.9204 10.4529
ltoes -54.4288
246
root -0.559301 18.7474 4.81895 3.88234 -1.76447 -0.967222
lowerback 1.05057 -0.144115 -0.93793
upperback -2.84665 -0.175122 1.45466
thorax -3.50838 -0.0394041 2.03051
lowerneck -13.9061 -1.61939 -3.62386
upperneck 23.9005 -2.29602 3.49652
head 9.96862 -0.993403 1.54896
rclavicle 4.05024e-015 6.36111e-015
rhumerus -58.5966 -4.79239 -81.0921
rradius 56.813
rwrist 13.1874
rhand -9.89251 -38.679
rfingers 7.12502
rthumb 16.0872 -68.0312
lclavicle 4.05024e-015 6.36111e-015
lhumerus 8.40363 -19.3428 64.3503
lradius 102.039
lwrist 62.1888
lhand -23.2626 -13.5004
lfingers 7.12502
lthumb 3.18954 16.4555
rfemur 0 0 0
rtibia 0
rfoot 0 0
rtoes 0
lfemur -6.27445 -5.97511 -14.0773
ltibia 20.9379
lfoot -21.8254 10.2284
ltoes -54.3016
247
root -0.558013 18.7481 4.81978 3.97316 -1.6241 -0.941036
lowerback 1.18998 -0.0895419 -0.76346
upperback -2.85369 -0.100144 1.35961
thorax -3.59769 -0.00757594 1.832
lowerneck -14.0174 -1.71407 -3.82409
upperneck 23.685 -2.36732 3.49304
head 9.91866 -1.04343 1.57031
rclavicle -4.35463e-015 -8.74653e-015
rhumerus -59.647 -5.06149 -81.116
rradius 59.9901
rwrist 15.2583
rhand -11.8652 -38.379
rfingers 7.12502
rthumb 14.1869 -67.8745
lclavicle -4.35463e-015 -8.74653e-015
lhumerus 6.68156 -20.2377 64.7054
lradius 103.479
lwrist 60.9995
lhand -22.5696 -13.7472
lfingers 7.12502
lthumb 3.85871 16.1976
rfemur 0 0 0
rtibia 0
rfoot 0 0
rtoes 0
lfemur -6.41182 -5.92417 -14.0744
ltibia 20.9424
lfoot -21.7153 10.0272
ltoes -54.2499
248
root -0.558469 18.7492 4.8213 4.05871 -1.42393 -0.87358
lowerback 1.33593 -0.0527477 -0.632162
upperback -2.84745 -0.0517184 1.2108
thorax -3.67542 0.011046 1.6032
lowerneck -14.1705 -1.81004 -3.93017
upperneck 23.462 -2.46037 3.48319
head 9.87389 -1.09523 1.57043
rclavicle -7.13761e-015 1.86858e-014
rhumerus -60.6174 -5.08504 -81.5202
rradius 63.5585
rwrist 15.9127
rhand -15.3807 -37.939
rfingers 7.12502
rthumb 10.7976 -67.6415
lclavicle -7.13761e-015 1.86858e-014
lhumerus 4.7875 -21.2174 65.099
lradius 105.073
lwrist 59.4331
lhand -21.7621 -14.4136
lfingers 7.12502
lthumb 4.63851 15.5156
rfemur 0 0 0
rtibia 0
rfoot 0 0
rtoes 0
lfemur -6.5644 -5.85909 -14.1053
ltibia 20.9603
lfoot -21.571 9.8182
ltoes -54.3815
249
root -0.561559 18.7501 4.82243 4.14812 -1.15065 -0.833461
lowerback 1.48176 -0.0418272 -0.523469
upperback -2.84352 -0.0387751 1.0512
thorax -3.75411 0.012325 1.37749
lowerneck -14.392 -1.88871 -3.99401
upperneck 23.3184 -2.54223 3.48595
head 9.86959 -1.1359 1.56955
rclavicle 7.237e-016 2.38542e-015
rhumerus -61.3839 -4.85953 -82.2531
rradius 67.2268
rwrist 14.6753
rhand -20.7398 -36.8378
rfingers 7.12502
rthumb 5.62554 -66.7431
lclavicle 7.237e-016 2.38542e-015
lhumerus 2.61694 -22.2305 65.573
lradius 106.772
lwrist 57.0991
lhand -20.7774 -15.3895
lfingers 7.12502
lthumb 5.58924 14.5167
rfemur 0 0 0
rtibia 0
rfoot 0 0
rtoes 0
lfemur -6.75739 -5.81193 -14.0908
ltibia 21.0063
lfoot -21.4025 9.59355
ltoes -54.5549
